<svg id="svg24893" xmlns:rdf="http://www.w3.org/1999/02/22-rdf-syntax-ns#" xmlns="http://www.w3.org/2000/svg" xml:space="preserve" overflow="visible" height="95.92" viewBox="0 0 360.9619 95.919752" width="360.96" version="1.1" enable-background="new 0 0 595.275 841.89" xmlns:cc="http://creativecommons.org/ns#" xmlns:dc="http://purl.org/dc/elements/1.1/"><metadata id="metadata31"><rdf:RDF><cc:Work rdf:about=""><dc:format>image/svg+xml</dc:format><dc:type rdf:resource="http://purl.org/dc/dcmitype/StillImage"/><dc:title/></cc:Work></rdf:RDF></metadata>
<path id="path24905" fill="#3d4e83" d="m360.96,94.934h-94.281v-94.283h94.281v94.283z"/>
<path id="path24913" fill="#FFF" d="m300.78,25.321c1.284,0.084,2.525,0.195,3.726,0.348-5.804-1.758-11.95-2.711-18.32-2.711-6.807,0-13.352,1.096-19.5,3.09v0.616c6.359-1.671,13.09-2.592,20.058-2.592,4.805-0.001,9.502,0.438,14.036,1.249z"/>
<path id="path24917" fill="#FFF" d="m306.43,26.564c-1.851-0.482-3.742-0.895-5.651-1.243-4.848-0.32-10.288-0.192-16.004,0.474-6.731,0.785-12.915,2.214-18.091,4.013v3.031c5.371-2.923,13.176-5.287,22.035-6.318,6.503-0.759,12.592-0.683,17.711,0.043z"/>
<path id="path24921" fill="#FFF" d="m326.91,37.948c-0.032-0.075-0.084-0.134-0.126-0.203-1.952-1.637-4.004-3.157-6.148-4.551,0.102,0.279,0.177,0.558,0.218,0.854,0,0.033-0.006,0.067-0.006,0.093-0.087-0.363-0.212-0.711-0.372-1.057-0.887-0.573-1.784-1.123-2.694-1.646-7.567-2.45-18.616-2.612-30.447,0.134-8,1.866-15.111,4.764-20.651,8.158v1.243c5.987-3.049,13.581-5.609,22.069-7.137,16.898-3.067,32.025-1.174,38.157,4.112z"/>
<path id="path24925" fill="#FFF" d="m337.92,49.9c-1.546-2.206-3.226-4.315-5.033-6.309-10.668-6.978-29.562-7.687-48.759-0.634-6.478,2.381-12.348,5.421-17.449,8.867v2.56c5.591-3.514,12.078-6.58,19.23-8.893,21.962-7.087,43-4.89,52.011,4.409z"/>
<path id="path24929" fill="#FFF" d="m346.1,66.082c-0.997-2.956-2.195-5.812-3.59-8.556-10.075-9.881-32.025-11.284-53.902-2.339-8.556,3.488-15.987,8.125-21.924,13.311v2.662c6.705-5.161,15.278-9.628,25.05-12.694,23.918-7.502,46.749-3.962,54.366,7.616z"/>
<path id="path24933" fill="#FFF" d="m289.79,75.87c25.152-11.747,51.284-8.995,58.379,6.167,0.549,1.183,0.903,2.424,1.183,3.682-0.026-3.801-0.39-7.524-1.064-11.139-7.279-13.946-33.496-14.958-58.759-2.231-9.189,4.638-16.966,10.456-22.845,16.657v3.319c5.869-6.302,13.757-12.07,23.106-16.455z"/>
<path id="path24937" fill="#FFF" d="m347.79,90.203c-4.805-11.883-24.586-15.075-44.188-7.144-7.442,3.005-13.749,7.196-18.489,11.875h2.729c4.458-3.412,9.948-6.37,16.199-8.439,18.581-6.182,36.597-2.372,40.793,8.439h3.886c0.017-0.11,0.043-0.212,0.058-0.322-0.108-1.511-0.412-2.997-0.988-4.409z"/>
<path id="path24941" fill="#cda81c" d="m346,22.728c-40.422-6.385-69.739,5.01-79.315,9.511v4.958c34.434-19.374,79.315-14.469,79.315-14.469z"/>
<path id="path24945" fill="#cda81c" d="m351.61,32.83c-43.471-7.879-75.795,7.314-84.932,12.313v5.44c32.711-22.778,84.932-17.753,84.932-17.753z"/>
<path id="path24949" fill="#cda81c" d="m359.47,44.798c-47.712-9.053-81.511,9.418-92.787,16.884v5.844c39.408-30.49,92.787-22.728,92.787-22.728z"/>
<path id="path24953" fill="#3d4e83" d="m122.58,2.4003c0.818,0.356,2.086,0.312,2.872-0.127,0.608-0.474,0.929-1.081,0.955-1.782,0.456-0.253,1.09-0.093,1.647-0.134l0.135,13.647c-2.821,1.232-1.563-1.95-2.466-2.999-1.225-4.104-5.362-7.709-9.696-8.201-4.366-0.496-8.458,0.938-10.912,4.51-4.488,6.529-4.677,17.533,0.135,24.03,2.882,3.892,7.422,5.41,12.289,4.627,4.06-0.653,7.398-3.092,10.515-6.132,0.439,0.305,0.895,0.642,1.352,0.956-5.738,9.308-15.964,10.957-25.65,8.048-5.886-1.768-11.054-7.417-12.424-13.235-1.67-7.094,0.07-14.43,4.493-19.663,6.201-7.335,18.621-7.083,26.755-3.545z"/>
<path id="path24957" fill="#3d4e83" d="m166.82,16.588c-2.395-3.065-5.556-5.087-9.021-5.87-7.828-1.769-16.898-0.757-22.12,6.294-2.877,3.885-3.131,9.542-1.495,13.918,2.603,6.959,10.073,9.472,16.791,9.688,6.661,0.214,13.358-2.131,16.647-8.599,2.337-4.596,2.386-11.351-0.802-15.431zm-10.65,18.718c-2.787,4.385-7.916,3.286-10.38-0.549-3.431-5.339-3.456-14.965,0.819-19.924,2.948-3.419,7.207-2.872,9.561,0.404,3.778,5.258,3.461,14.623,0,20.069z"/>
<path id="path24961" fill="#3d4e83" d="m201.6,11.682c-6.175-2.654-12.567,0.093-17.322,3.816l-0.144-5.042-13.513,1.09-0.271,0.271c-1.239,1.239,2.248,0.723,3.286,1.504,1.539,1.16,1.923,2.837,1.909,4.645-0.079,9.814,0.103,20.024-0.144,30.035-0.033,1.324-1.375,2.751-2.72,3.133-0.826,0.234-1.824,0.041-2.466,0.683-0.068,0.355,0.061,0.809,0.405,0.811l18.429,0.145c0.4,0.002,0.456-0.465,0.414-0.82-0.777-0.642-2.18-0.344-3.133-0.819-1.386-0.69-2.401-2.114-2.466-3.557l0.27-11.047c0.507,0.735,1.14,1.546,1.909,2.043,4.983,3.034,12.9,3.242,17.754-0.134,4.141-2.881,5.596-7.293,5.87-11.875,0.368-6.136-2.138-12.334-8.067-14.882zm-3.817,23.2c-1.72,2.624-4.941,3.177-7.914,2.467-2.264-0.541-4.501-2.153-5.735-4.376l0.144-13.098c2.061-3.226,5.532-5.841,9.544-5.042,2.018,0.401,3.951,2.104,4.916,3.952,2.464,4.721,1.843,11.828-0.955,16.097z"/>
<path id="path24965" fill="#3d4e83" d="m242.84,37.213c-0.995-0.536-1.089-2.178-1.065-3.15,0.146-6.118,2.31-13.832-1.527-18.969-2.742-3.671-7.288-4.364-11.738-4.088-4.849,0.3-10.703,2.441-12.011,7.779,0.218,0.288,0.489,0.422,0.828,0.404,2.575-3.2,6.509-4.704,10.642-3.554,1.973,0.548,3.502,2.477,4.095,4.374,0.218,0.697,0.268,1.842-0.558,2.054-5.981,1.537-12.554,1.984-16.781,7.373-1.306,1.665-1.341,4.388-0.686,6.402,0.807,2.479,3.187,4.044,5.591,4.644,4.573,1.141,9.123-0.683,12.694-3.412h0.27c1.538,2.796,4.379,4.484,7.518,3.97,2.537-0.416,5.211-1.918,6.417-4.51-0.504-2.746-2.317,1.423-3.689,0.683zm-10.648-4.24c0.078,1.25-1.07,2.248-2.045,2.865-1.347,0.853-3.56,1.04-4.906-0.128-1.382-1.198-1.545-3.147-1.099-4.78,0.931-3.4,4.679-5.456,7.922-6.004l0.127,0.134c-0.194,2.56-0.157,5.37,0.001,7.913z"/>
<path id="path24969" fill="#3d4e83" d="m57.332,52.356c1.579,1.417,2.184,3.826,1.359,5.871-0.797,1.977-2.696,3.273-4.771,3.133-1.666-0.113-3.405-0.898-4.231-2.584-0.88-1.793-0.793-4.009,0.405-5.6,1.613-2.141,5.363-2.501,7.238-0.82z"/>
<path id="path24973" fill="#3d4e83" d="m130.91,54.141c0.8,1.137,0.831,2.832,0.541,4.223-0.369,1.768-2.324,3.489-4.096,3.69-1.632,0.186-3.369-0.146-4.646-1.496-1.35-1.428-1.78-3.295-1.36-5.202,0.374-1.699,2.181-3.33,3.826-3.673,2.349-0.492,4.39,0.546,5.735,2.458z"/>
<path id="path24977" fill="#3d4e83" d="m109.47,90.305c0.287,0.863,0.997,1.656,1.782,2.197,0.819,0.227,1.934,0.041,2.458,0.666,0.042,0.354-0.017,0.787-0.414,0.828l-17.475,0.136c-0.295-0.168-0.431-0.186-0.541-0.54,0.102-1.412,2.078-0.575,2.737-1.784,0.777-0.666,0.929-1.587,1.225-2.456l-0.135-31.944c-0.633-1.738-2.466-1.723-3.961-1.916-0.093-0.389-0.439-0.735,0-1.09l0.27-0.262c4.646-0.27,9.291-0.558,13.919-0.828l0.135,36.993z"/>
<path id="path24981" fill="#3d4e83" d="m59.114,90.034-0.288-25.118-13.378,0.692c-0.313,0.238-0.481,0.532-0.405,0.956,1.537,0.431,3.531,0.564,4.096,2.448l0.135,19.799c-0.245,1.038-0.498,2.069-1.36,2.872-1.106,0.793-2.736,0.768-4.096,0.532-3.201-1.055-3.99-4.537-5.042-7.23l-11.892-30.449-6.689-0.134-15.009,35.083c-0.857,2.003-2.998,2.863-5.051,3.016-0.304,0.303-0.042,0.709,0.271,0.954l13.117,0.136,0.532-0.424c0.287-1.756-1.759-0.658-2.593-1.36-0.619-0.521-1.099-1.146-1.089-1.907,0.042-3.453,1.816-6.286,2.728-9.418h12.559c1.199,2.322,2.038,4.804,3.007,7.239,0.466,1.172,0.411,2.837-0.541,3.825-1.033,1.072-3.125-0.033-3.691,1.496,0.27,0.125,0,0.59,0.405,0.549l38.083-0.136,0.144-0.82c-1.631-0.134-3.312-0.988-3.953-2.601zm-44.502-12.964,5.042-12.551,4.78,12.417-9.822,0.134z"/>
<path id="path24985" fill="#3d4e83" d="m94.73,66.006-2.179,9.425c-0.743-0.311-1.347-0.986-2.043-1.36-1.618-0.868-3.56-1.681-5.473-0.954-1.422,0.54-2.525,1.849-3.404,3.133l-0.135,14.054c-0.008,0.844,0.886,1.692,1.765,1.909,0.827,0.204,1.816,0.041,2.466,0.692l-0.135,0.956h-18.159c-0.337-0.177-0.27-0.517-0.27-0.819,1.005-0.744,2.485-0.37,3.403-1.36,0.669-0.722,1.096-1.503,1.09-2.467l-0.135-20.203c-0.456-2.255-2.973-1.535-4.223-2.448-0.177-0.439,0.271-0.718,0.549-0.828l13.505-0.686,0.144,7.509c2.965-3.252,5.591-8.623,10.921-7.509,0.776,0.323,1.629,0.448,2.313,0.956z"/>
<path id="path24989" fill="#3d4e83" d="m239.29,66.689c1.924,0.688,2.203-1.622,3.816-1.224l0.271,0.541,0.279,7.914c0.076,0.854-0.979,0.541-1.367,0.421-1.31-2.694-3.593-6.013-6.547-6.958-2.562-0.819-6.475-1.052-8.056,1.628-0.456,0.772-0.543,2.053-0.136,2.865,1.831,3.655,6.273,2.886,9.418,4.374,2.978,1.409,7.06,3.713,7.777,7.23,0.796,3.905-0.677,7.804-4.086,10.244-5.3,3.793-12.72,1.613-18.431,0.271-1.232,0-1.232,2.043-2.465,1.226-0.685-3.144-0.331-6.733-0.819-9.967,0.093-0.271,0.337-0.474,0.556-0.683,1.183,0.38,1.005,1.799,1.775,2.601,2.272,3.775,6.11,6.517,10.363,6.283,1.558-0.086,3.173-0.7,4.104-2.331,0.833-1.461,0.281-3.234-0.819-4.223-3.256-2.923-7.895-3-11.468-5.463-1.756-1.21-3.714-2.697-4.088-4.781-0.623-3.465,0.289-6.989,3.269-9.14,4.627-3.339,11.612-2.63,16.654-0.828z"/>
<path id="path24993" fill="#3d4e83" d="m172.96,69.157c0.85,1.253,1.614,2.694,1.638,4.231l0.271,17.195c0.253,0.793,0.887,1.563,1.63,2.052,0.659,0.5,1.774-0.093,2.323,0.677,0.177,0.692-0.372,1.073-0.955,1.099l-16.791-0.153c-0.439-0.151-0.304-0.709-0.144-0.945,0.845-0.709,2.154-0.238,2.872-1.234,0.87-0.895,1.286-2.019,1.233-3.267l0.038-12.153c0.188-1.568-0.42-3.166-1.406-4.368-1.396-1.702-3.839-1.844-5.87-1.369-1.618,0.379-3.471,1.775-3.961,3.557l0.135,15.693c0.228,1.046,1.039,2.11,2.053,2.601,0.642,0.227,1.444,0.032,1.909,0.683,0.051,0.346,0,0.77-0.405,0.802l-17.205-0.125c-0.186-0.221-0.186-0.61,0-0.82,0.811-0.465,1.942-0.127,2.602-0.964,1.165-0.794,1.047-2.11,1.359-3.267l-0.135-17.341c0.025-0.936-0.069-2.103-0.693-2.999-0.939-1.35-2.792-0.395-3.674-1.358-0.301-0.328,0.161-0.854,0.541-0.956,4.688,0.093,9.02-0.651,13.513-0.962l0.135,4.231c2.965-2.432,6.438-3.858,10.11-4.359,3.515-0.479,6.897,0.901,8.877,3.819z"/>
<path id="path24997" fill="#3d4e83" d="m131.59,90.171c0.228,1.046,0.993,2.326,2.043,2.601,0.723,0.189,1.656-0.043,2.044,0.541,0.186,0.421-0.253,0.709-0.532,0.819l-16.25,0.125c-0.566,0.076-1.267-0.186-1.36-0.666,0.025-1.673,2.171-0.235,2.998-1.377,1.317-1.818,1.111-4.197,1.09-6.538l0.135-14.476c0.013-1.37-0.647-2.68-1.909-3.546-0.816-0.561-3.624,0.137-2.314-1.226l0.405-0.422c4.51-0.168,9.096-0.16,13.514-0.541l0.136,24.706z"/>
<path id="path25001" fill="#3d4e83" d="m207.63,89.764c-3.102,2.033-7.64,1.303-10.65-0.549-3.907-2.405-5.126-6.46-5.059-10.785l0.287-0.262h21.013c-0.218-4.004-1.691-7.596-4.915-10.244-3.22-2.646-7.5-3.413-11.875-3.144-4.823,0.297-9.53,2.144-12.424,6.564-3.221,4.919-3.066,12.328,0,17.33,3.032,4.946,8.295,7.468,14.07,7.23,6.15-0.253,12.754-3.269,14.874-9.561l-1.512-0.819c-0.886,1.453-2.224,3.201-3.809,4.24zm-12.559-21.985c2.058-1.156,5.482-0.871,6.958,1.511,1.075,1.733,1.174,3.853,1.226,6.006h-11.191c-0.161-2.989,0.344-6.02,3.007-7.517z"/>
</svg>
