<svg xmlns="http://www.w3.org/2000/svg" height="800" width="1200" viewBox="-9.8425005 -1.8986725 85.301671 11.392035"><path d="M2.94483 3.63103l-.04418.0907c-.17446-.0372-.49313-.15817-.82344-.30936l-.0465.0837.13723.0744c.48383.2489.642.3024.92113.3024.55826 0 .98161-.31636 1.177-.87462.34659-.0698.7932-.10002 1.32122-.10002.45359 0 .8467.0233 1.35146.0837l-.12793.15817c-.23494-.0302-.66527-.0605-.97464-.0605-.36984 0-.60478.009-.7234.0163l-.0628.13492c.31169-.0139.42334-.0139.66526-.0139.40939 0 .7327.0139.99789.0372l-.13026.16515c-.47453-.0139-.69318-.0209-1.04907-.0209-.1954 0-.3396.007-.57222.0139l-.06048.13492c.20237-.0139.4815-.021.77692-.021.27913 0 .61175.007.80714.0139l-.12793.16748c-.13491-.009-.40008-.009-.60478-.009-.32333 0-.73272.0163-.94207.0465l-.06048.12096c.3838-.0372.62572-.0535 1.04907-.0535.16515 0 .27215 0 .46056.0163l-.14422.17213c-.25587-.0139-.3396-.0139-.4373-.0139-.71644 0-1.1863.10467-1.65385.36984.43033.43033 1.14676.72341 1.78876.72341.05347 0 .08374 0 .22098-.007l-.3117.30937c-1.70502-.44428-2.0074-.56525-3.57054-1.49336-.61874-.35589-1.1235-.5978-1.5329-.71876l.05353-.1884c.0977.0163.30937.0768.50476.1442l.09304-.20469zm-2.57498.1512c0 1.8725 1.52591 3.39841 3.39841 3.39841 1.88646 0 3.41238-1.51893 3.41238-3.39143C7.18064 1.87251 5.671.36985 3.745.36985 1.89576.36985.36985 1.90973.36985 3.78223zm7.18064 0c0 2.09115-1.6841 3.76826-3.78223 3.76826C1.69106 7.5505 0 5.8664 0 3.78921 0 1.66781 1.69107.00001 3.83572.00001 5.87338 0 7.5505 1.71432 7.5505 3.78222m35.41704.77692c-.1512.0465-.2047.0605-.32566.10002a3.69357 3.69357 0 00-.43265.0977c-.38148.0977-.57222.2489-.57222.48383 0 .23261.18144.36752.48383.36752.57455 0 .8467-.25587.8467-.79087zm-2.26562-.73039c.007-.81646.64899-1.30726 1.72829-1.30726 1.12583 0 1.6771.46754 1.6771 1.41891v1.84924c0 .30937 0 .30937.0977.5071h-1.10255l-.0605-.3024c-.4373.3559-.69317.4536-1.177.4536-.80948 0-1.38867-.47686-1.38867-1.13282 0-.5443.35356-.9281 1.04906-1.12583.10468-.0302.45359-.10467 1.04906-.20934.2489-.0535.35357-.13724.35357-.3117 0-.20237-.21167-.3396-.52104-.3396-.38381 0-.61874.19073-.61874.5001zm-1.65384-.0233c-.0303-.3396-.17446-.46755-.535-.46755-.29542 0-.47686.11165-.47686.30007 0 .17446.17446.28146.56757.34194l.40707.0744c.86065.14422 1.26074.50476 1.26074 1.1328 0 .76994-.65596 1.26075-1.6841 1.26075-1.21653 0-1.87947-.48383-1.87947-1.35844h1.15607v.0442c0 .3024.24889.4908.64898.4908.34658 0 .55825-.12794.55825-.33263 0-.21168-.19771-.33263-.65828-.41405l-.37683-.0605c-.86065-.1512-1.2305-.46057-1.2305-1.0351 0-.7839.65829-1.26075 1.7376-1.26075.75365 0 1.22119.2047 1.4631.642.107.18143.12096.24191.1512.642zm-4.99877-1.1328l.0395.40706c.27913-.35357.61177-.51174 1.04907-.51174.50476 0 .91415.21865 1.12583.59548.14887.27913.1791.4373.1791 1.03511V6.2967h-1.18397V4.24275c0-.535-.1512-.75365-.52105-.75365-.38613 0-.58152.25587-.58152.75365V6.2967h-1.1863V2.67265zM31.41617 4.5591c-.1512.0465-.19771.0605-.31867.10002-.1419.0372-.26982.0675-.43032.0977-.38381.0977-.57222.2489-.57222.48383 0 .2326.18143.36752.47452.36752.57454 0 .84669-.25587.84669-.79087zm-2.25863-.73039c0-.82344.642-1.30726 1.71433-1.30726 1.12583 0 1.68409.46754 1.68409 1.41891V5.7896c0 .31868 0 .31868.0977.5071h-1.0956l-.0675-.3024c-.37682.33263-.70014.4536-1.177.4536-.80016 0-1.3817-.47686-1.3817-1.13282 0-.5443.35358-.9281 1.04908-1.12583.10467-.0303.45358-.0977 1.04906-.20934.25587-.0535.3559-.13724.3559-.3117 0-.20237-.21168-.3396-.52803-.3396-.38613 0-.61176.18143-.62106.5001zm-2.79363-2.568v1.819c.22098-.35357.53035-.51174.9909-.51174.4978 0 .89788.20935 1.11654.59548.15817.27913.18143.43032.18143 1.03511V6.2967h-1.17932V4.24275c0-.52104-.15818-.75365-.52105-.75365-.39078 0-.5885.25587-.5885.75365V6.2967h-1.18398V1.26071zm-2.17257.27913v1.13281h.66992v.80017h-.66992v1.4352c.007.52802.0372.55826.4908.55826h.2326v.83041h-.89088c-.70248 0-1.01883-.32565-1.01883-1.06535V3.47282h-.49778v-.80017h.49778v-1.1328zm-1.82132.52104h-.1954c-.4373 0-.55128.107-.55128.5071v.10467h.70248v.80017h-.70248V6.2967h-1.18398V3.47282h-.51407v-.80017h.51407v-.10468c0-.95137.35357-1.30726 1.284-1.30726h.64666zM18.60408 6.2967l-.0372-.35357c-.29542.30937-.62805.45127-1.0421.45127-.51406 0-.9281-.21168-1.13978-.57455-.1605-.27215-.18143-.40706-.18143-1.00254V2.67265h1.18398v2.09812c0 .52803.15119.74901.52104.74901.3931 0 .5885-.2582.5885-.749V2.67264h1.1863V6.2967zm-4.76384-5.03598v4.0381h2.12838v.99788H12.5795V1.26071m38.35257 3.29146c-.0163.43963-.12793.76993-.39311 1.10256-.40707.52802-1.04907.7932-1.88646.7932-.75365 0-1.33052-.2047-1.78178-.63503-.52802-.49778-.80716-1.19328-.80716-2.00043 0-.82344.29309-1.59337.80716-2.07488.43032-.40939 1.04906-.62804 1.81202-.62804.82344 0 1.4352.27216 1.85622.83042.24424.32565.35589.64897.3931 1.0886h-1.27701c-.0884-.58152-.48151-.9374-1.0328-.9374-.75597 0-1.22351.62803-1.22351 1.63756 0 1.05837.46754 1.67711 1.26772 1.67711.56757 0 .90717-.2954.98859-.85367m3.94969.00697c-.14421.0465-.19538.0605-.32564.10002-.0442.007-.0442.007-.42103.10468-.38613.0907-.57454.2489-.57454.48382 0 .22564.18143.36985.48382.36985.31635 0 .62572-.13724.74668-.33263.0628-.0977.0907-.23493.0907-.46754zm-2.25863-.73039c0-.81646.6513-1.30726 1.7213-1.30726.74203 0 1.27006.23493 1.51895.66526.12095.21865.15817.4001.15817.75365v2.00974c0 .1419.007.17213.0977.3466h-1.09327l-.0698-.3024c-.41404.3466-.6862.4536-1.177.4536-.80715 0-1.3817-.47686-1.3817-1.13282 0-.55128.35589-.9281 1.04907-1.12583.0907-.0302.4373-.0977 1.05139-.20934.24889-.0535.35589-.14422.35589-.31868 0-.2047-.214-.33263-.53732-.33263-.38614 0-.6048.18144-.61176.50011M56.2309 2.6727l.0395.38611c.2396-.31867.57222-.4908.96533-.4908.0442 0 .14422.007.2489.021v.9886c-.0907-.0139-.12794-.021-.1954-.021-.33262 0-.60478.1349-.77923.3838-.12794.19771-.16516.36286-.16516.77923v1.5771h-1.18398V2.67268m3.46359 1.66782c0 .5443.31867.91414.77924.91414.46755 0 .7234-.32333.7234-.90485s-.27215-.91415-.73736-.91415c-.4629 0-.76528.36287-.76528.90485zm2.67267-1.6678v3.32862c0 .59781-.0442.74668-.29308 1.02813-.36985.39078-.86996.56524-1.64687.56524-.57455 0-.98161-.1349-1.30494-.43033-.22796-.21167-.33263-.42334-.35357-.73969h1.19794c.0837.25586.2419.3559.57454.3559.46057 0 .6955-.24193.6955-.70947v-.2582c-.3117.23494-.57454.32333-.96067.32333-1.02581 0-1.72828-.70713-1.72828-1.7562 0-1.05139.70945-1.80504 1.70037-1.80504.4373 0 .73969.12096 1.00952.41404l.0395-.31634m2.54942 1.80504c0 .69317.27914 1.06302.81647 1.06302.535 0 .82344-.36985.82344-1.05605 0-.70945-.27914-1.07232-.83042-1.07232-.53035 0-.80948.37683-.80948 1.06535zm2.84017.007c0 1.23748-.7397 1.96322-2.01672 1.96322-1.26074 0-2.00742-.72574-2.00742-1.95624 0-1.26074.7397-1.9702 2.03766-1.9702 1.24678 0 1.98648.7397 1.98648 1.96322" fill="#05164d"/></svg>